<svg width="1040" height="1040" viewBox="0 0 1040 1040" fill="none" xmlns="http://www.w3.org/2000/svg">
<path fill-rule="evenodd" d="M 633 1040 L 257 1040 A 30 30 0 0 1 227 1010 L 227 257 A 30 30 0 0 1 257 227 L 666 227 A 30 30 0 0 0 696 197 L 696 153 A 30 30 0 0 0 666 123 L 153 123 A 30 30 0 0 0 123 153 L 123 783 A 30 30 0 0 1 93 813 L 30 813 A 30 30 0 0 1 0 783 L 0 30 A 30 30 0 0 1 30 0 L 783 0 A 30 30 0 0 1 813 30 L 813 783 A 30 30 0 0 1 783 813 L 374 813 A 30 30 0 0 0 344 843 L 344 887 A 30 30 0 0 0 374 917 L 887 917 A 30 30 0 0 0 917 887 L 917 257 A 30 30 0 0 1 947 227 L 1010 227 A 30 30 0 0 1 1040 257 L 1040 1010 A 30 30 0 0 1 1010 1040 Z M 519 349 L 660 349 A 30 30 0 0 1 690 379 L 690 661 A 30 30 0 0 1 660 691 L 379 691 A 30 30 0 0 1 349 661 L 349 379 A 30 30 0 0 1 379 349 Z" fill="currentColor"></path>
</svg>